<svg xmlns="http://www.w3.org/2000/svg" version="1.1" xmlns:xlink="http://www.w3.org/1999/xlink" xmlns:svgjs="http://svgjs.dev/svgjs" viewBox="0 0 800 800"><defs><linearGradient x1="50%" y1="0%" x2="50%" y2="100%" id="ffflurry-grad" gradientTransform="rotate(270)"><stop stop-color="hsl(238, 82%, 13%)" stop-opacity="1" offset="0%"></stop><stop stop-color="hsl(55, 94%, 54%)" stop-opacity="1" offset="45%"></stop><stop stop-color="hsl(212, 72%, 59%)" stop-opacity="1" offset="100%"></stop></linearGradient></defs><rect width="100%" height="100%" fill="hsl(238, 82%, 13%)"></rect><g fill="url(#ffflurry-grad)"><rect width="220" height="3" x="133" y="192.5" rx="1.5" transform="rotate(45, 243, 194)" opacity="0.65"></rect><rect width="192" height="3" x="-32" y="375.5" rx="1.5" transform="rotate(45, 64, 377)" opacity="0.35"></rect><rect width="131" height="3" x="459.5" y="151.5" rx="1.5" transform="rotate(45, 525, 153)" opacity="0.35"></rect><rect width="205" height="3" x="277.5" y="488.5" rx="1.5" transform="rotate(45, 380, 490)" opacity="0.80"></rect><rect width="166" height="3" x="5" y="109.5" rx="1.5" transform="rotate(45, 88, 111)" opacity="0.84"></rect><rect width="205" height="3" x="73.5" y="759.5" rx="1.5" transform="rotate(45, 176, 761)" opacity="0.12"></rect><rect width="233" height="3" x="-80.5" y="716.5" rx="1.5" transform="rotate(45, 36, 718)" opacity="0.99"></rect><rect width="353" height="3" x="247.5" y="573.5" rx="1.5" transform="rotate(45, 424, 575)" opacity="0.68"></rect><rect width="164" height="3" x="273" y="68.5" rx="1.5" transform="rotate(45, 355, 70)" opacity="0.45"></rect><rect width="223" height="3" x="36.5" y="285.5" rx="1.5" transform="rotate(45, 148, 287)" opacity="0.24"></rect><rect width="68" height="3" x="606" y="553.5" rx="1.5" transform="rotate(45, 640, 555)" opacity="0.20"></rect><rect width="414" height="3" x="511" y="214.5" rx="1.5" transform="rotate(45, 718, 216)" opacity="0.20"></rect><rect width="319" height="3" x="507.5" y="30.5" rx="1.5" transform="rotate(45, 667, 32)" opacity="0.12"></rect><rect width="161" height="3" x="131.5" y="680.5" rx="1.5" transform="rotate(45, 212, 682)" opacity="0.19"></rect><rect width="150" height="3" x="193" y="75.5" rx="1.5" transform="rotate(45, 268, 77)" opacity="0.75"></rect><rect width="460" height="3" x="137" y="387.5" rx="1.5" transform="rotate(45, 367, 389)" opacity="0.99"></rect><rect width="296" height="3" x="171" y="275.5" rx="1.5" transform="rotate(45, 319, 277)" opacity="0.28"></rect><rect width="441" height="3" x="-94.5" y="674.5" rx="1.5" transform="rotate(45, 126, 676)" opacity="0.36"></rect><rect width="102" height="3" x="233" y="527.5" rx="1.5" transform="rotate(45, 284, 529)" opacity="0.95"></rect><rect width="202" height="3" x="77" y="506.5" rx="1.5" transform="rotate(45, 178, 508)" opacity="0.08"></rect><rect width="331" height="3" x="324.5" y="408.5" rx="1.5" transform="rotate(45, 490, 410)" opacity="0.78"></rect><rect width="57" height="3" x="540.5" y="763.5" rx="1.5" transform="rotate(45, 569, 765)" opacity="0.20"></rect><rect width="132" height="3" x="497" y="37.5" rx="1.5" transform="rotate(45, 563, 39)" opacity="0.71"></rect><rect width="74" height="3" x="123" y="32.5" rx="1.5" transform="rotate(45, 160, 34)" opacity="0.68"></rect><rect width="289" height="3" x="366.5" y="689.5" rx="1.5" transform="rotate(45, 511, 691)" opacity="0.11"></rect><rect width="65" height="3" x="137.5" y="113.5" rx="1.5" transform="rotate(45, 170, 115)" opacity="0.23"></rect><rect width="80" height="3" x="586" y="321.5" rx="1.5" transform="rotate(45, 626, 323)" opacity="1.00"></rect><rect width="245" height="3" x="-74.5" y="501.5" rx="1.5" transform="rotate(45, 48, 503)" opacity="0.91"></rect><rect width="129" height="3" x="562.5" y="96.5" rx="1.5" transform="rotate(45, 627, 98)" opacity="0.72"></rect><rect width="329" height="3" x="257.5" y="750.5" rx="1.5" transform="rotate(45, 422, 752)" opacity="0.26"></rect><rect width="350" height="3" x="581" y="656.5" rx="1.5" transform="rotate(45, 756, 658)" opacity="0.95"></rect><rect width="321" height="3" x="334.5" y="761.5" rx="1.5" transform="rotate(45, 495, 763)" opacity="0.73"></rect><rect width="434" height="3" x="310" y="588.5" rx="1.5" transform="rotate(45, 527, 590)" opacity="0.62"></rect><rect width="229" height="3" x="170.5" y="664.5" rx="1.5" transform="rotate(45, 285, 666)" opacity="0.97"></rect><rect width="53" height="3" x="60.5" y="766.5" rx="1.5" transform="rotate(45, 87, 768)" opacity="0.15"></rect><rect width="268" height="3" x="224" y="686.5" rx="1.5" transform="rotate(45, 358, 688)" opacity="0.08"></rect><rect width="113" height="3" x="73.5" y="200.5" rx="1.5" transform="rotate(45, 130, 202)" opacity="0.59"></rect><rect width="170" height="3" x="644" y="466.5" rx="1.5" transform="rotate(45, 729, 468)" opacity="0.29"></rect><rect width="227" height="3" x="-57.5" y="604.5" rx="1.5" transform="rotate(45, 56, 606)" opacity="0.95"></rect><rect width="196" height="3" x="-60" y="171.5" rx="1.5" transform="rotate(45, 38, 173)" opacity="0.65"></rect><rect width="106" height="3" x="153" y="417.5" rx="1.5" transform="rotate(45, 206, 419)" opacity="0.35"></rect><rect width="283" height="3" x="522.5" y="671.5" rx="1.5" transform="rotate(45, 664, 673)" opacity="0.33"></rect><rect width="484" height="3" x="-199" y="282.5" rx="1.5" transform="rotate(45, 43, 284)" opacity="0.40"></rect><rect width="434" height="3" x="536" y="83.5" rx="1.5" transform="rotate(45, 753, 85)" opacity="0.38"></rect><rect width="42" height="3" x="475" y="53.5" rx="1.5" transform="rotate(45, 496, 55)" opacity="0.84"></rect><rect width="257" height="3" x="131.5" y="756.5" rx="1.5" transform="rotate(45, 260, 758)" opacity="0.37"></rect><rect width="127" height="3" x="466.5" y="257.5" rx="1.5" transform="rotate(45, 530, 259)" opacity="0.73"></rect><rect width="418" height="3" x="20" y="335.5" rx="1.5" transform="rotate(45, 229, 337)" opacity="0.93"></rect><rect width="180" height="3" x="272" y="611.5" rx="1.5" transform="rotate(45, 362, 613)" opacity="0.38"></rect><rect width="262" height="3" x="431" y="477.5" rx="1.5" transform="rotate(45, 562, 479)" opacity="0.61"></rect><rect width="450" height="3" x="241" y="502.5" rx="1.5" transform="rotate(45, 466, 504)" opacity="0.37"></rect><rect width="153" height="3" x="628.5" y="337.5" rx="1.5" transform="rotate(45, 705, 339)" opacity="0.70"></rect><rect width="685" height="3" x="60.5" y="198.5" rx="1.5" transform="rotate(45, 403, 200)" opacity="0.34"></rect><rect width="36" height="3" x="559" y="382.5" rx="1.5" transform="rotate(45, 577, 384)" opacity="0.82"></rect><rect width="78" height="3" x="237" y="596.5" rx="1.5" transform="rotate(45, 276, 598)" opacity="0.79"></rect><rect width="125" height="3" x="232.5" y="440.5" rx="1.5" transform="rotate(45, 295, 442)" opacity="0.96"></rect><rect width="395" height="3" x="243.5" y="660.5" rx="1.5" transform="rotate(45, 441, 662)" opacity="0.85"></rect><rect width="57" height="3" x="654.5" y="763.5" rx="1.5" transform="rotate(45, 683, 765)" opacity="0.92"></rect><rect width="114" height="3" x="291" y="778.5" rx="1.5" transform="rotate(45, 348, 780)" opacity="0.20"></rect><rect width="180" height="3" x="681" y="300.5" rx="1.5" transform="rotate(45, 771, 302)" opacity="0.91"></rect><rect width="240" height="3" x="519" y="176.5" rx="1.5" transform="rotate(45, 639, 178)" opacity="0.95"></rect><rect width="212" height="3" x="10" y="438.5" rx="1.5" transform="rotate(45, 116, 440)" opacity="0.93"></rect><rect width="242" height="3" x="208" y="733.5" rx="1.5" transform="rotate(45, 329, 735)" opacity="0.61"></rect><rect width="251" height="3" x="307.5" y="66.5" rx="1.5" transform="rotate(45, 433, 68)" opacity="0.58"></rect><rect width="160" height="3" x="93" y="589.5" rx="1.5" transform="rotate(45, 173, 591)" opacity="0.70"></rect><rect width="232" height="3" x="-72" y="43.5" rx="1.5" transform="rotate(45, 44, 45)" opacity="0.75"></rect><rect width="423" height="3" x="229.5" y="328.5" rx="1.5" transform="rotate(45, 441, 330)" opacity="0.72"></rect><rect width="140" height="3" x="513" y="667.5" rx="1.5" transform="rotate(45, 583, 669)" opacity="0.10"></rect></g></svg>