<?xml version="1.0" encoding="iso-8859-1"?>
<!-- Generator: Adobe Illustrator 19.0.0, SVG Export Plug-In . SVG Version: 6.00 Build 0)  -->
<svg version="1.1" id="Layer_1" xmlns="http://www.w3.org/2000/svg" xmlns:xlink="http://www.w3.org/1999/xlink" x="0px" y="0px"
	 viewBox="0 0 356.848 356.848" style="enable-background:new 0 0 356.848 356.848;" xml:space="preserve">
<g>
	<title>school-high-building-university-front</title>
	<rect x="33.514" y="206.456" style="fill:#9CE7F7;" width="11.146" height="22.292"/>
	<rect x="33.514" y="262.185" style="fill:#9CE7F7;" width="11.146" height="22.292"/>
	<rect x="78.099" y="262.185" style="fill:#9CE7F7;" width="11.146" height="22.292"/>
	<rect x="78.099" y="206.456" style="fill:#9CE7F7;" width="11.146" height="22.292"/>
	<rect x="161.693" y="262.185" style="fill:#9CE7F7;" width="33.438" height="83.594"/>
	<polygon style="fill:#9CE7F7;" points="126.806,173.018 172.839,173.018 172.839,145.153 142.911,145.153 	"/>
	<path style="fill:#9CE7F7;" d="M11.222,345.78h100.313V184.164H11.222V345.78z M66.953,200.883c0-3.078,2.495-5.573,5.573-5.573
		h22.292c3.078,0,5.573,2.495,5.573,5.573v33.438c0,3.078-2.495,5.573-5.573,5.573H72.526c-3.078,0-5.573-2.495-5.573-5.573V200.883
		z M66.953,256.612c0-3.078,2.495-5.573,5.573-5.573h22.292c3.078,0,5.573,2.495,5.573,5.573v33.438
		c0,3.078-2.495,5.573-5.573,5.573H72.526c-3.078,0-5.573-2.495-5.573-5.573V256.612z M22.368,200.883
		c0-3.078,2.495-5.573,5.573-5.573h22.292c3.078,0,5.573,2.495,5.573,5.573v33.438c0,3.078-2.495,5.573-5.573,5.573H27.941
		c-3.078,0-5.573-2.495-5.573-5.573V200.883z M22.368,256.612c0-3.078,2.495-5.573,5.573-5.573h22.292
		c3.078,0,5.573,2.495,5.573,5.573v33.438c0,3.078-2.495,5.573-5.573,5.573H27.941c-3.078,0-5.573-2.495-5.573-5.573V256.612z"/>
	<polygon style="fill:#F78628;" points="42.765,106.142 14.12,173.018 113.877,173.018 152.609,106.142 	"/>
	<polygon style="fill:#9CE7F7;" points="172.839,134.007 172.839,93.436 149.377,134.007 	"/>
	<polygon style="fill:#9CE7F7;" points="213.911,145.153 183.984,145.153 183.984,173.018 230.073,173.018 	"/>
	<polygon style="fill:#9CE7F7;" points="183.984,93.436 183.984,134.007 207.503,134.007 	"/>
	<rect x="183.984" y="11.402" style="fill:#F78628;" width="44.584" height="22.292"/>
	<circle style="fill:#9CE7F7;" cx="178.411" cy="217.602" r="11.146"/>
	<path style="fill:#9CE7F7;" d="M245.288,345.78H345.6V184.164H245.288V345.78z M301.016,200.883c0-3.078,2.495-5.573,5.573-5.573
		h22.292c3.078,0,5.573,2.495,5.573,5.573v33.438c0,3.078-2.495,5.573-5.573,5.573h-22.292c-3.078,0-5.573-2.495-5.573-5.573
		V200.883z M301.016,256.612c0-3.078,2.495-5.573,5.573-5.573h22.292c3.078,0,5.573,2.495,5.573,5.573v33.438
		c0,3.078-2.495,5.573-5.573,5.573h-22.292c-3.078,0-5.573-2.495-5.573-5.573V256.612z M256.434,200.883
		c0-3.078,2.495-5.573,5.573-5.573h22.292c3.078,0,5.573,2.495,5.573,5.573v33.438c0,3.078-2.495,5.573-5.573,5.573h-22.292
		c-3.078,0-5.573-2.495-5.573-5.573V200.883z M256.434,256.612c0-3.078,2.495-5.573,5.573-5.573h22.292
		c3.078,0,5.573,2.495,5.573,5.573v33.438c0,3.078-2.495,5.573-5.573,5.573h-22.292c-3.078,0-5.573-2.495-5.573-5.573V256.612z"/>
	<rect x="312.162" y="262.185" style="fill:#9CE7F7;" width="11.146" height="22.292"/>
	<rect x="267.578" y="206.456" style="fill:#9CE7F7;" width="11.146" height="22.292"/>
	<path style="fill:#9CE7F7;" d="M122.683,345.78h27.865v-83.594H139.4V251.04h78.021v11.146h-11.146v83.594h27.865V184.164H122.683
		V345.78z M178.411,195.31c12.311,0,22.292,9.98,22.292,22.292s-9.98,22.292-22.292,22.292s-22.292-9.98-22.292-22.292
		S166.101,195.31,178.411,195.31z"/>
	<polygon style="fill:#F78628;" points="314.057,106.142 204.215,106.142 242.947,173.018 342.702,173.018 	"/>
	<rect x="312.162" y="206.456" style="fill:#9CE7F7;" width="11.146" height="22.292"/>
	<rect x="267.578" y="262.185" style="fill:#9CE7F7;" width="11.146" height="22.292"/>
	<path style="fill:#414A52;" d="M356.746,176.473L356.746,176.473L356.746,176.473l-33.438-78.021
		c-1.006-2.15-3.201-3.489-5.573-3.4H197.749L183.984,71.2V44.84h50.157c3.078,0,5.573-2.495,5.573-5.573V5.829
		c0-3.078-2.495-5.573-5.573-5.573h-55.73c-3.078,0-5.573,2.495-5.573,5.573V71.2l-13.765,23.797H39.088
		c-2.372-0.089-4.567,1.25-5.573,3.4l-33.438,78.02l0,0l0,0c-0.102,0.609-0.102,1.23,0,1.839l0,0v172.762
		c0,3.078,2.495,5.573,5.573,5.573h345.524c3.078,0,5.573-2.495,5.573-5.573V178.591l0,0
		C356.882,177.891,356.882,177.173,356.746,176.473z M314.057,106.142l28.645,66.876h-99.756l-38.732-66.876L314.057,106.142
		L314.057,106.142z M142.911,145.153h29.927v27.865h-46.088L142.911,145.153z M183.984,145.153h29.927l16.106,27.865h-46.033
		V145.153z M207.447,134.007h-23.462V93.436L207.447,134.007z M228.568,33.694h-44.584V11.402h44.584V33.694z M172.839,134.007
		h-23.462l23.462-40.571V134.007z M42.765,106.142h109.843l-38.732,66.876H14.12L42.765,106.142z M11.222,184.164h100.313V345.78
		H11.222V184.164z M122.683,184.164h111.459V345.78h-27.865v-83.594h11.146V251.04H139.4v11.146h11.146v83.594h-27.865V184.164
		H122.683z M161.693,345.78v-83.594h33.438v83.594H161.693z M345.6,345.78H245.288V184.164H345.6V345.78z"/>
	<path style="fill:#414A52;" d="M262.007,239.893h22.292c3.078,0,5.573-2.495,5.573-5.573v-33.438c0-3.078-2.495-5.573-5.573-5.573
		h-22.292c-3.078,0-5.573,2.495-5.573,5.573v33.438C256.434,237.398,258.928,239.893,262.007,239.893z M267.578,206.456h11.146
		v22.292h-11.146V206.456z"/>
	<path style="fill:#414A52;" d="M306.589,239.893h22.292c3.078,0,5.573-2.495,5.573-5.573v-33.438c0-3.078-2.495-5.573-5.573-5.573
		h-22.292c-3.078,0-5.573,2.495-5.573,5.573v33.438C301.016,237.398,303.511,239.893,306.589,239.893z M312.162,206.456h11.146
		v22.292h-11.146V206.456z"/>
	<path style="fill:#414A52;" d="M262.007,295.623h22.292c3.078,0,5.573-2.495,5.573-5.573v-33.438c0-3.078-2.495-5.573-5.573-5.573
		h-22.292c-3.078,0-5.573,2.495-5.573,5.573v33.438C256.434,293.128,258.928,295.623,262.007,295.623z M267.578,262.185h11.146
		v22.292h-11.146V262.185z"/>
	<path style="fill:#414A52;" d="M306.589,295.623h22.292c3.078,0,5.573-2.495,5.573-5.573v-33.438c0-3.078-2.495-5.573-5.573-5.573
		h-22.292c-3.078,0-5.573,2.495-5.573,5.573v33.438C301.016,293.128,303.511,295.623,306.589,295.623z M312.162,262.185h11.146
		v22.292h-11.146V262.185z"/>
	<path style="fill:#414A52;" d="M50.234,195.31H27.941c-3.078,0-5.573,2.495-5.573,5.573v33.438c0,3.078,2.495,5.573,5.573,5.573
		h22.292c3.078,0,5.573-2.495,5.573-5.573v-33.438C55.806,197.805,53.312,195.31,50.234,195.31z M44.66,228.748H33.514v-22.292
		H44.66V228.748z"/>
	<path style="fill:#414A52;" d="M94.818,195.31H72.526c-3.078,0-5.573,2.495-5.573,5.573v33.438c0,3.078,2.495,5.573,5.573,5.573
		h22.292c3.078,0,5.573-2.495,5.573-5.573v-33.438C100.391,197.805,97.896,195.31,94.818,195.31z M89.245,228.748H78.099v-22.292
		h11.146V228.748z"/>
	<path style="fill:#414A52;" d="M50.234,251.039H27.941c-3.078,0-5.573,2.495-5.573,5.573v33.438c0,3.078,2.495,5.573,5.573,5.573
		h22.292c3.078,0,5.573-2.495,5.573-5.573v-33.438C55.806,253.534,53.312,251.039,50.234,251.039z M44.66,284.477H33.514v-22.292
		H44.66V284.477z"/>
	<path style="fill:#414A52;" d="M94.818,251.039H72.526c-3.078,0-5.573,2.495-5.573,5.573v33.438c0,3.078,2.495,5.573,5.573,5.573
		h22.292c3.078,0,5.573-2.495,5.573-5.573v-33.438C100.391,253.534,97.896,251.039,94.818,251.039z M89.245,284.477H78.099v-22.292
		h11.146V284.477z"/>
	<path style="fill:#414A52;" d="M178.411,239.893c12.311,0,22.292-9.98,22.292-22.292s-9.98-22.292-22.292-22.292
		s-22.292,9.98-22.292,22.292S166.101,239.893,178.411,239.893z M178.411,206.456c6.156,0,11.146,4.99,11.146,11.146
		s-4.99,11.146-11.146,11.146c-6.156,0-11.146-4.99-11.146-11.146S172.256,206.456,178.411,206.456z"/>
	<rect x="16.795" y="33.694" style="fill:#414A52;" width="11.146" height="11.146"/>
	<rect x="39.088" y="33.694" style="fill:#414A52;" width="11.146" height="11.146"/>
	<rect x="61.38" y="33.694" style="fill:#414A52;" width="11.146" height="11.146"/>
	<rect x="61.38" y="61.559" style="fill:#414A52;" width="11.146" height="11.146"/>
	<rect x="83.672" y="61.559" style="fill:#414A52;" width="11.146" height="11.146"/>
	<rect x="105.964" y="61.559" style="fill:#414A52;" width="11.146" height="11.146"/>
	<rect x="256.434" y="22.548" style="fill:#414A52;" width="11.146" height="11.146"/>
	<rect x="278.724" y="22.548" style="fill:#414A52;" width="11.146" height="11.146"/>
	<rect x="301.016" y="22.548" style="fill:#414A52;" width="11.146" height="11.146"/>
	<rect x="301.016" y="55.986" style="fill:#414A52;" width="11.146" height="11.146"/>
	<rect x="323.309" y="55.986" style="fill:#414A52;" width="11.146" height="11.146"/>
	<rect x="345.6" y="55.986" style="fill:#414A52;" width="11.146" height="11.146"/>
</g>
<g>
</g>
<g>
</g>
<g>
</g>
<g>
</g>
<g>
</g>
<g>
</g>
<g>
</g>
<g>
</g>
<g>
</g>
<g>
</g>
<g>
</g>
<g>
</g>
<g>
</g>
<g>
</g>
<g>
</g>
</svg>
